<mxfile host="Electron" agent="Mozilla/5.0 (Windows NT 10.0; Win64; x64) AppleWebKit/537.36 (KHTML, like Gecko) draw.io/26.0.9 Chrome/128.0.6613.186 Electron/32.2.5 Safari/537.36" version="26.0.9">
  <diagram name="Permata Gateway Application Flow" id="permata-gateway-flow">
    <mxGraphModel dx="308" dy="2514" grid="1" gridSize="10" guides="1" tooltips="1" connect="1" arrows="1" fold="1" page="1" pageScale="1" pageWidth="1600" pageHeight="1200" math="0" shadow="0">
      <root>
        <mxCell id="0" />
        <mxCell id="1" parent="0" />
        <mxCell id="iP2fBkS0vCjnL0VtTD-p-10" style="edgeStyle=orthogonalEdgeStyle;rounded=0;orthogonalLoop=1;jettySize=auto;html=1;entryX=0.5;entryY=0;entryDx=0;entryDy=0;" parent="1" source="iP2fBkS0vCjnL0VtTD-p-1" target="iP2fBkS0vCjnL0VtTD-p-4" edge="1">
          <mxGeometry relative="1" as="geometry" />
        </mxCell>
        <mxCell id="iP2fBkS0vCjnL0VtTD-p-11" style="edgeStyle=orthogonalEdgeStyle;rounded=0;orthogonalLoop=1;jettySize=auto;html=1;entryX=0.5;entryY=0;entryDx=0;entryDy=0;" parent="1" source="iP2fBkS0vCjnL0VtTD-p-1" target="iP2fBkS0vCjnL0VtTD-p-2" edge="1">
          <mxGeometry relative="1" as="geometry" />
        </mxCell>
        <mxCell id="iP2fBkS0vCjnL0VtTD-p-14" value="" style="edgeStyle=orthogonalEdgeStyle;rounded=0;orthogonalLoop=1;jettySize=auto;html=1;" parent="1" source="iP2fBkS0vCjnL0VtTD-p-1" target="iP2fBkS0vCjnL0VtTD-p-3" edge="1">
          <mxGeometry relative="1" as="geometry" />
        </mxCell>
        <mxCell id="iP2fBkS0vCjnL0VtTD-p-1" value="Start" style="ellipse;whiteSpace=wrap;html=1;" parent="1" vertex="1">
          <mxGeometry x="2090" y="70" width="120" height="80" as="geometry" />
        </mxCell>
        <mxCell id="iP2fBkS0vCjnL0VtTD-p-13" value="" style="edgeStyle=orthogonalEdgeStyle;rounded=0;orthogonalLoop=1;jettySize=auto;html=1;" parent="1" source="iP2fBkS0vCjnL0VtTD-p-2" target="iP2fBkS0vCjnL0VtTD-p-12" edge="1">
          <mxGeometry relative="1" as="geometry" />
        </mxCell>
        <mxCell id="iP2fBkS0vCjnL0VtTD-p-2" value="POST /webhook" style="rounded=1;whiteSpace=wrap;html=1;" parent="1" vertex="1">
          <mxGeometry x="2280" y="200" width="120" height="60" as="geometry" />
        </mxCell>
        <mxCell id="iP2fBkS0vCjnL0VtTD-p-16" value="" style="edgeStyle=orthogonalEdgeStyle;rounded=0;orthogonalLoop=1;jettySize=auto;html=1;" parent="1" source="iP2fBkS0vCjnL0VtTD-p-3" target="iP2fBkS0vCjnL0VtTD-p-15" edge="1">
          <mxGeometry relative="1" as="geometry" />
        </mxCell>
        <mxCell id="iP2fBkS0vCjnL0VtTD-p-3" value="GET&amp;nbsp; /webhook" style="rounded=1;whiteSpace=wrap;html=1;" parent="1" vertex="1">
          <mxGeometry x="2090" y="200" width="120" height="60" as="geometry" />
        </mxCell>
        <mxCell id="iP2fBkS0vCjnL0VtTD-p-8" value="" style="edgeStyle=orthogonalEdgeStyle;rounded=0;orthogonalLoop=1;jettySize=auto;html=1;" parent="1" source="iP2fBkS0vCjnL0VtTD-p-4" target="iP2fBkS0vCjnL0VtTD-p-5" edge="1">
          <mxGeometry relative="1" as="geometry" />
        </mxCell>
        <mxCell id="iP2fBkS0vCjnL0VtTD-p-4" value="Run Sheduler Login" style="rounded=1;whiteSpace=wrap;html=1;" parent="1" vertex="1">
          <mxGeometry x="1800" y="200" width="120" height="60" as="geometry" />
        </mxCell>
        <mxCell id="iP2fBkS0vCjnL0VtTD-p-9" value="" style="edgeStyle=orthogonalEdgeStyle;rounded=0;orthogonalLoop=1;jettySize=auto;html=1;" parent="1" source="iP2fBkS0vCjnL0VtTD-p-5" target="iP2fBkS0vCjnL0VtTD-p-6" edge="1">
          <mxGeometry relative="1" as="geometry" />
        </mxCell>
        <mxCell id="iP2fBkS0vCjnL0VtTD-p-46" style="edgeStyle=orthogonalEdgeStyle;rounded=0;orthogonalLoop=1;jettySize=auto;html=1;dashed=1;" parent="1" source="iP2fBkS0vCjnL0VtTD-p-5" target="iP2fBkS0vCjnL0VtTD-p-36" edge="1">
          <mxGeometry relative="1" as="geometry" />
        </mxCell>
        <mxCell id="iP2fBkS0vCjnL0VtTD-p-5" value="Login get token" style="rounded=1;whiteSpace=wrap;html=1;" parent="1" vertex="1">
          <mxGeometry x="1800" y="300" width="120" height="60" as="geometry" />
        </mxCell>
        <mxCell id="iP2fBkS0vCjnL0VtTD-p-7" style="edgeStyle=orthogonalEdgeStyle;rounded=0;orthogonalLoop=1;jettySize=auto;html=1;entryX=0;entryY=0.5;entryDx=0;entryDy=0;exitX=0;exitY=0.5;exitDx=0;exitDy=0;" parent="1" source="iP2fBkS0vCjnL0VtTD-p-6" target="iP2fBkS0vCjnL0VtTD-p-4" edge="1">
          <mxGeometry relative="1" as="geometry">
            <Array as="points">
              <mxPoint x="1750" y="460" />
              <mxPoint x="1750" y="230" />
            </Array>
          </mxGeometry>
        </mxCell>
        <mxCell id="iP2fBkS0vCjnL0VtTD-p-6" value="Is periodic running sheduler?" style="rhombus;whiteSpace=wrap;html=1;" parent="1" vertex="1">
          <mxGeometry x="1810" y="410" width="100" height="100" as="geometry" />
        </mxCell>
        <mxCell id="iP2fBkS0vCjnL0VtTD-p-28" value="" style="edgeStyle=orthogonalEdgeStyle;rounded=0;orthogonalLoop=1;jettySize=auto;html=1;" parent="1" source="iP2fBkS0vCjnL0VtTD-p-12" target="iP2fBkS0vCjnL0VtTD-p-25" edge="1">
          <mxGeometry relative="1" as="geometry" />
        </mxCell>
        <mxCell id="iP2fBkS0vCjnL0VtTD-p-12" value="&lt;span style=&quot;font-size: 11px;&quot;&gt;Extract Request Payload JSON&lt;/span&gt;" style="rounded=1;whiteSpace=wrap;html=1;" parent="1" vertex="1">
          <mxGeometry x="2280" y="300" width="120" height="60" as="geometry" />
        </mxCell>
        <mxCell id="iP2fBkS0vCjnL0VtTD-p-15" value="Response 200 Success" style="rounded=1;whiteSpace=wrap;html=1;" parent="1" vertex="1">
          <mxGeometry x="2090" y="300" width="120" height="60" as="geometry" />
        </mxCell>
        <mxCell id="iP2fBkS0vCjnL0VtTD-p-21" style="edgeStyle=orthogonalEdgeStyle;rounded=0;orthogonalLoop=1;jettySize=auto;html=1;entryX=0;entryY=0.5;entryDx=0;entryDy=0;" parent="1" source="iP2fBkS0vCjnL0VtTD-p-17" target="iP2fBkS0vCjnL0VtTD-p-19" edge="1">
          <mxGeometry relative="1" as="geometry" />
        </mxCell>
        <mxCell id="iP2fBkS0vCjnL0VtTD-p-22" value="No" style="edgeLabel;html=1;align=center;verticalAlign=middle;resizable=0;points=[];" parent="iP2fBkS0vCjnL0VtTD-p-21" vertex="1" connectable="0">
          <mxGeometry x="-0.1298" y="1" relative="1" as="geometry">
            <mxPoint as="offset" />
          </mxGeometry>
        </mxCell>
        <mxCell id="iP2fBkS0vCjnL0VtTD-p-33" value="" style="edgeStyle=orthogonalEdgeStyle;rounded=0;orthogonalLoop=1;jettySize=auto;html=1;" parent="1" source="iP2fBkS0vCjnL0VtTD-p-17" target="iP2fBkS0vCjnL0VtTD-p-32" edge="1">
          <mxGeometry relative="1" as="geometry" />
        </mxCell>
        <mxCell id="iP2fBkS0vCjnL0VtTD-p-17" value="Is payload DR or Inbound flow message?" style="rhombus;whiteSpace=wrap;html=1;" parent="1" vertex="1">
          <mxGeometry x="2290" y="540" width="100" height="100" as="geometry" />
        </mxCell>
        <mxCell id="iP2fBkS0vCjnL0VtTD-p-24" value="" style="edgeStyle=orthogonalEdgeStyle;rounded=0;orthogonalLoop=1;jettySize=auto;html=1;" parent="1" source="iP2fBkS0vCjnL0VtTD-p-19" target="iP2fBkS0vCjnL0VtTD-p-23" edge="1">
          <mxGeometry relative="1" as="geometry" />
        </mxCell>
        <mxCell id="iP2fBkS0vCjnL0VtTD-p-19" value="Ignore the request" style="rounded=1;whiteSpace=wrap;html=1;" parent="1" vertex="1">
          <mxGeometry x="2480" y="560" width="120" height="60" as="geometry" />
        </mxCell>
        <mxCell id="iP2fBkS0vCjnL0VtTD-p-76" style="edgeStyle=orthogonalEdgeStyle;rounded=0;orthogonalLoop=1;jettySize=auto;html=1;entryX=1;entryY=0.5;entryDx=0;entryDy=0;exitX=1;exitY=0.5;exitDx=0;exitDy=0;" parent="1" source="iP2fBkS0vCjnL0VtTD-p-23" target="iP2fBkS0vCjnL0VtTD-p-69" edge="1">
          <mxGeometry relative="1" as="geometry" />
        </mxCell>
        <mxCell id="iP2fBkS0vCjnL0VtTD-p-23" value="Response 200 Success" style="rounded=1;whiteSpace=wrap;html=1;" parent="1" vertex="1">
          <mxGeometry x="2660" y="560" width="120" height="60" as="geometry" />
        </mxCell>
        <mxCell id="iP2fBkS0vCjnL0VtTD-p-27" value="" style="edgeStyle=orthogonalEdgeStyle;rounded=0;orthogonalLoop=1;jettySize=auto;html=1;" parent="1" source="iP2fBkS0vCjnL0VtTD-p-25" target="iP2fBkS0vCjnL0VtTD-p-26" edge="1">
          <mxGeometry relative="1" as="geometry" />
        </mxCell>
        <mxCell id="iP2fBkS0vCjnL0VtTD-p-30" value="Yes" style="edgeLabel;html=1;align=center;verticalAlign=middle;resizable=0;points=[];" parent="iP2fBkS0vCjnL0VtTD-p-27" vertex="1" connectable="0">
          <mxGeometry x="-0.2234" y="-1" relative="1" as="geometry">
            <mxPoint as="offset" />
          </mxGeometry>
        </mxCell>
        <mxCell id="iP2fBkS0vCjnL0VtTD-p-29" value="" style="edgeStyle=orthogonalEdgeStyle;rounded=0;orthogonalLoop=1;jettySize=auto;html=1;" parent="1" source="iP2fBkS0vCjnL0VtTD-p-25" target="iP2fBkS0vCjnL0VtTD-p-17" edge="1">
          <mxGeometry relative="1" as="geometry" />
        </mxCell>
        <mxCell id="iP2fBkS0vCjnL0VtTD-p-31" value="No" style="edgeLabel;html=1;align=center;verticalAlign=middle;resizable=0;points=[];" parent="iP2fBkS0vCjnL0VtTD-p-29" vertex="1" connectable="0">
          <mxGeometry x="-0.4684" y="2" relative="1" as="geometry">
            <mxPoint as="offset" />
          </mxGeometry>
        </mxCell>
        <mxCell id="iP2fBkS0vCjnL0VtTD-p-25" value="Is failed parse JSON" style="rhombus;whiteSpace=wrap;html=1;" parent="1" vertex="1">
          <mxGeometry x="2290" y="400" width="100" height="100" as="geometry" />
        </mxCell>
        <mxCell id="qI9zLhb5zL1YSGXmJBYN-2" style="edgeStyle=orthogonalEdgeStyle;rounded=0;orthogonalLoop=1;jettySize=auto;html=1;entryX=0.5;entryY=0;entryDx=0;entryDy=0;" edge="1" parent="1" source="iP2fBkS0vCjnL0VtTD-p-26" target="iP2fBkS0vCjnL0VtTD-p-23">
          <mxGeometry relative="1" as="geometry" />
        </mxCell>
        <mxCell id="iP2fBkS0vCjnL0VtTD-p-26" value="HIT send alert to telegram" style="rounded=1;whiteSpace=wrap;html=1;" parent="1" vertex="1">
          <mxGeometry x="2480" y="420" width="120" height="60" as="geometry" />
        </mxCell>
        <mxCell id="iP2fBkS0vCjnL0VtTD-p-35" value="" style="edgeStyle=orthogonalEdgeStyle;rounded=0;orthogonalLoop=1;jettySize=auto;html=1;" parent="1" source="iP2fBkS0vCjnL0VtTD-p-32" target="iP2fBkS0vCjnL0VtTD-p-34" edge="1">
          <mxGeometry relative="1" as="geometry" />
        </mxCell>
        <mxCell id="iP2fBkS0vCjnL0VtTD-p-32" value="Get access token in cache" style="rounded=1;whiteSpace=wrap;html=1;" parent="1" vertex="1">
          <mxGeometry x="2280" y="680" width="120" height="60" as="geometry" />
        </mxCell>
        <mxCell id="iP2fBkS0vCjnL0VtTD-p-37" value="" style="edgeStyle=orthogonalEdgeStyle;rounded=0;orthogonalLoop=1;jettySize=auto;html=1;" parent="1" source="iP2fBkS0vCjnL0VtTD-p-34" target="iP2fBkS0vCjnL0VtTD-p-36" edge="1">
          <mxGeometry relative="1" as="geometry" />
        </mxCell>
        <mxCell id="iP2fBkS0vCjnL0VtTD-p-47" value="Yes" style="edgeLabel;html=1;align=center;verticalAlign=middle;resizable=0;points=[];" parent="iP2fBkS0vCjnL0VtTD-p-37" vertex="1" connectable="0">
          <mxGeometry x="-0.194" y="1" relative="1" as="geometry">
            <mxPoint as="offset" />
          </mxGeometry>
        </mxCell>
        <mxCell id="iP2fBkS0vCjnL0VtTD-p-49" value="" style="edgeStyle=orthogonalEdgeStyle;rounded=0;orthogonalLoop=1;jettySize=auto;html=1;" parent="1" source="iP2fBkS0vCjnL0VtTD-p-34" target="iP2fBkS0vCjnL0VtTD-p-48" edge="1">
          <mxGeometry relative="1" as="geometry" />
        </mxCell>
        <mxCell id="iP2fBkS0vCjnL0VtTD-p-55" value="No" style="edgeLabel;html=1;align=center;verticalAlign=middle;resizable=0;points=[];" parent="iP2fBkS0vCjnL0VtTD-p-49" vertex="1" connectable="0">
          <mxGeometry x="-0.1116" relative="1" as="geometry">
            <mxPoint as="offset" />
          </mxGeometry>
        </mxCell>
        <mxCell id="iP2fBkS0vCjnL0VtTD-p-34" value="Is token null ?" style="rhombus;whiteSpace=wrap;html=1;" parent="1" vertex="1">
          <mxGeometry x="2290" y="780" width="100" height="100" as="geometry" />
        </mxCell>
        <mxCell id="iP2fBkS0vCjnL0VtTD-p-39" value="" style="edgeStyle=orthogonalEdgeStyle;rounded=0;orthogonalLoop=1;jettySize=auto;html=1;" parent="1" source="iP2fBkS0vCjnL0VtTD-p-36" target="iP2fBkS0vCjnL0VtTD-p-38" edge="1">
          <mxGeometry relative="1" as="geometry" />
        </mxCell>
        <mxCell id="iP2fBkS0vCjnL0VtTD-p-36" value="Prepare login header" style="rounded=1;whiteSpace=wrap;html=1;" parent="1" vertex="1">
          <mxGeometry x="2020" y="800" width="120" height="60" as="geometry" />
        </mxCell>
        <mxCell id="iP2fBkS0vCjnL0VtTD-p-41" value="" style="edgeStyle=orthogonalEdgeStyle;rounded=0;orthogonalLoop=1;jettySize=auto;html=1;" parent="1" source="iP2fBkS0vCjnL0VtTD-p-38" target="iP2fBkS0vCjnL0VtTD-p-40" edge="1">
          <mxGeometry relative="1" as="geometry" />
        </mxCell>
        <mxCell id="iP2fBkS0vCjnL0VtTD-p-38" value="Login to Permata" style="rounded=1;whiteSpace=wrap;html=1;" parent="1" vertex="1">
          <mxGeometry x="2020" y="900" width="120" height="60" as="geometry" />
        </mxCell>
        <mxCell id="iP2fBkS0vCjnL0VtTD-p-43" value="" style="edgeStyle=orthogonalEdgeStyle;rounded=0;orthogonalLoop=1;jettySize=auto;html=1;" parent="1" source="iP2fBkS0vCjnL0VtTD-p-40" target="iP2fBkS0vCjnL0VtTD-p-42" edge="1">
          <mxGeometry relative="1" as="geometry" />
        </mxCell>
        <mxCell id="iP2fBkS0vCjnL0VtTD-p-50" value="Yes" style="edgeLabel;html=1;align=center;verticalAlign=middle;resizable=0;points=[];" parent="iP2fBkS0vCjnL0VtTD-p-43" vertex="1" connectable="0">
          <mxGeometry x="-0.1" y="-1" relative="1" as="geometry">
            <mxPoint as="offset" />
          </mxGeometry>
        </mxCell>
        <mxCell id="iP2fBkS0vCjnL0VtTD-p-40" value="Is login success?" style="rhombus;whiteSpace=wrap;html=1;" parent="1" vertex="1">
          <mxGeometry x="2030" y="1000" width="100" height="100" as="geometry" />
        </mxCell>
        <mxCell id="iP2fBkS0vCjnL0VtTD-p-78" style="edgeStyle=orthogonalEdgeStyle;rounded=0;orthogonalLoop=1;jettySize=auto;html=1;entryX=0;entryY=0.5;entryDx=0;entryDy=0;" parent="1" source="iP2fBkS0vCjnL0VtTD-p-42" target="iP2fBkS0vCjnL0VtTD-p-48" edge="1">
          <mxGeometry relative="1" as="geometry" />
        </mxCell>
        <mxCell id="iP2fBkS0vCjnL0VtTD-p-42" value="Put access_token to cache" style="rounded=1;whiteSpace=wrap;html=1;" parent="1" vertex="1">
          <mxGeometry x="2020" y="1140" width="120" height="60" as="geometry" />
        </mxCell>
        <mxCell id="iP2fBkS0vCjnL0VtTD-p-52" value="" style="edgeStyle=orthogonalEdgeStyle;rounded=0;orthogonalLoop=1;jettySize=auto;html=1;" parent="1" source="iP2fBkS0vCjnL0VtTD-p-48" target="iP2fBkS0vCjnL0VtTD-p-51" edge="1">
          <mxGeometry relative="1" as="geometry" />
        </mxCell>
        <mxCell id="iP2fBkS0vCjnL0VtTD-p-48" value="Compact JSON" style="rounded=1;whiteSpace=wrap;html=1;" parent="1" vertex="1">
          <mxGeometry x="2280" y="930" width="120" height="60" as="geometry" />
        </mxCell>
        <mxCell id="iP2fBkS0vCjnL0VtTD-p-56" value="" style="edgeStyle=orthogonalEdgeStyle;rounded=0;orthogonalLoop=1;jettySize=auto;html=1;" parent="1" source="iP2fBkS0vCjnL0VtTD-p-51" target="iP2fBkS0vCjnL0VtTD-p-53" edge="1">
          <mxGeometry relative="1" as="geometry" />
        </mxCell>
        <mxCell id="iP2fBkS0vCjnL0VtTD-p-51" value="Generate Signature" style="rounded=1;whiteSpace=wrap;html=1;" parent="1" vertex="1">
          <mxGeometry x="2280" y="1040" width="120" height="60" as="geometry" />
        </mxCell>
        <mxCell id="iP2fBkS0vCjnL0VtTD-p-59" value="" style="edgeStyle=orthogonalEdgeStyle;rounded=0;orthogonalLoop=1;jettySize=auto;html=1;" parent="1" source="iP2fBkS0vCjnL0VtTD-p-53" target="iP2fBkS0vCjnL0VtTD-p-58" edge="1">
          <mxGeometry relative="1" as="geometry" />
        </mxCell>
        <mxCell id="iP2fBkS0vCjnL0VtTD-p-53" value="Prepare header to send callbackstatus" style="rounded=1;whiteSpace=wrap;html=1;" parent="1" vertex="1">
          <mxGeometry x="2280" y="1140" width="120" height="60" as="geometry" />
        </mxCell>
        <mxCell id="iP2fBkS0vCjnL0VtTD-p-61" value="" style="edgeStyle=orthogonalEdgeStyle;rounded=0;orthogonalLoop=1;jettySize=auto;html=1;" parent="1" source="iP2fBkS0vCjnL0VtTD-p-58" target="iP2fBkS0vCjnL0VtTD-p-60" edge="1">
          <mxGeometry relative="1" as="geometry" />
        </mxCell>
        <mxCell id="iP2fBkS0vCjnL0VtTD-p-71" value="Yes" style="edgeLabel;html=1;align=center;verticalAlign=middle;resizable=0;points=[];" parent="iP2fBkS0vCjnL0VtTD-p-61" vertex="1" connectable="0">
          <mxGeometry x="-0.3323" y="-2" relative="1" as="geometry">
            <mxPoint as="offset" />
          </mxGeometry>
        </mxCell>
        <mxCell id="iP2fBkS0vCjnL0VtTD-p-63" value="" style="edgeStyle=orthogonalEdgeStyle;rounded=0;orthogonalLoop=1;jettySize=auto;html=1;" parent="1" source="iP2fBkS0vCjnL0VtTD-p-58" target="iP2fBkS0vCjnL0VtTD-p-62" edge="1">
          <mxGeometry relative="1" as="geometry" />
        </mxCell>
        <mxCell id="iP2fBkS0vCjnL0VtTD-p-72" value="No" style="edgeLabel;html=1;align=center;verticalAlign=middle;resizable=0;points=[];" parent="iP2fBkS0vCjnL0VtTD-p-63" vertex="1" connectable="0">
          <mxGeometry x="-0.2053" y="-1" relative="1" as="geometry">
            <mxPoint as="offset" />
          </mxGeometry>
        </mxCell>
        <mxCell id="iP2fBkS0vCjnL0VtTD-p-58" value="Is hit timeout?" style="rhombus;whiteSpace=wrap;html=1;" parent="1" vertex="1">
          <mxGeometry x="2290" y="1240" width="100" height="100" as="geometry" />
        </mxCell>
        <mxCell id="iP2fBkS0vCjnL0VtTD-p-66" value="" style="edgeStyle=orthogonalEdgeStyle;rounded=0;orthogonalLoop=1;jettySize=auto;html=1;" parent="1" source="iP2fBkS0vCjnL0VtTD-p-60" target="iP2fBkS0vCjnL0VtTD-p-65" edge="1">
          <mxGeometry relative="1" as="geometry" />
        </mxCell>
        <mxCell id="iP2fBkS0vCjnL0VtTD-p-60" value="Send telegram alert" style="rounded=1;whiteSpace=wrap;html=1;" parent="1" vertex="1">
          <mxGeometry x="2460" y="1260" width="120" height="60" as="geometry" />
        </mxCell>
        <mxCell id="iP2fBkS0vCjnL0VtTD-p-64" style="edgeStyle=orthogonalEdgeStyle;rounded=0;orthogonalLoop=1;jettySize=auto;html=1;entryX=0.5;entryY=1;entryDx=0;entryDy=0;" parent="1" source="iP2fBkS0vCjnL0VtTD-p-62" target="iP2fBkS0vCjnL0VtTD-p-60" edge="1">
          <mxGeometry relative="1" as="geometry" />
        </mxCell>
        <mxCell id="iP2fBkS0vCjnL0VtTD-p-73" value="Yes" style="edgeLabel;html=1;align=center;verticalAlign=middle;resizable=0;points=[];" parent="iP2fBkS0vCjnL0VtTD-p-64" vertex="1" connectable="0">
          <mxGeometry x="-0.5333" y="-3" relative="1" as="geometry">
            <mxPoint as="offset" />
          </mxGeometry>
        </mxCell>
        <mxCell id="iP2fBkS0vCjnL0VtTD-p-68" value="" style="edgeStyle=orthogonalEdgeStyle;rounded=0;orthogonalLoop=1;jettySize=auto;html=1;" parent="1" source="iP2fBkS0vCjnL0VtTD-p-62" target="iP2fBkS0vCjnL0VtTD-p-67" edge="1">
          <mxGeometry relative="1" as="geometry" />
        </mxCell>
        <mxCell id="iP2fBkS0vCjnL0VtTD-p-74" value="No" style="edgeLabel;html=1;align=center;verticalAlign=middle;resizable=0;points=[];" parent="iP2fBkS0vCjnL0VtTD-p-68" vertex="1" connectable="0">
          <mxGeometry x="-0.2579" relative="1" as="geometry">
            <mxPoint as="offset" />
          </mxGeometry>
        </mxCell>
        <mxCell id="iP2fBkS0vCjnL0VtTD-p-62" value="Is respose not 2xx?" style="rhombus;whiteSpace=wrap;html=1;" parent="1" vertex="1">
          <mxGeometry x="2290" y="1380" width="100" height="100" as="geometry" />
        </mxCell>
        <mxCell id="iP2fBkS0vCjnL0VtTD-p-75" style="edgeStyle=orthogonalEdgeStyle;rounded=0;orthogonalLoop=1;jettySize=auto;html=1;entryX=1;entryY=0.5;entryDx=0;entryDy=0;exitX=0.5;exitY=1;exitDx=0;exitDy=0;" parent="1" source="iP2fBkS0vCjnL0VtTD-p-65" target="iP2fBkS0vCjnL0VtTD-p-69" edge="1">
          <mxGeometry relative="1" as="geometry" />
        </mxCell>
        <mxCell id="iP2fBkS0vCjnL0VtTD-p-65" value="Response Error with req body from permata" style="rounded=1;whiteSpace=wrap;html=1;" parent="1" vertex="1">
          <mxGeometry x="2640" y="1260" width="120" height="60" as="geometry" />
        </mxCell>
        <mxCell id="iP2fBkS0vCjnL0VtTD-p-70" value="" style="edgeStyle=orthogonalEdgeStyle;rounded=0;orthogonalLoop=1;jettySize=auto;html=1;" parent="1" source="iP2fBkS0vCjnL0VtTD-p-67" target="iP2fBkS0vCjnL0VtTD-p-69" edge="1">
          <mxGeometry relative="1" as="geometry" />
        </mxCell>
        <mxCell id="iP2fBkS0vCjnL0VtTD-p-67" value="Response 200 Success with request body as is from permata" style="rounded=1;whiteSpace=wrap;html=1;" parent="1" vertex="1">
          <mxGeometry x="2280" y="1520" width="120" height="60" as="geometry" />
        </mxCell>
        <mxCell id="iP2fBkS0vCjnL0VtTD-p-69" value="End" style="ellipse;whiteSpace=wrap;html=1;" parent="1" vertex="1">
          <mxGeometry x="2280" y="1650" width="120" height="80" as="geometry" />
        </mxCell>
        <mxCell id="iP2fBkS0vCjnL0VtTD-p-77" value="Permata Gateway" style="text;html=1;strokeColor=none;fillColor=none;align=center;verticalAlign=middle;whiteSpace=wrap;rounded=0;fontSize=20;fontStyle=1;" parent="1" vertex="1">
          <mxGeometry x="1900" width="500" height="30" as="geometry" />
        </mxCell>
        <mxCell id="qI9zLhb5zL1YSGXmJBYN-3" style="edgeStyle=orthogonalEdgeStyle;rounded=0;orthogonalLoop=1;jettySize=auto;html=1;entryX=1;entryY=0.25;entryDx=0;entryDy=0;" edge="1" parent="1" source="qI9zLhb5zL1YSGXmJBYN-1" target="iP2fBkS0vCjnL0VtTD-p-23">
          <mxGeometry relative="1" as="geometry" />
        </mxCell>
        <mxCell id="qI9zLhb5zL1YSGXmJBYN-1" value="&lt;div&gt;{&lt;/div&gt;&lt;div&gt;&quot;StatusCode&quot; : &quot;00&quot;,&lt;/div&gt;&lt;div&gt;&amp;nbsp;&quot;StatusDesc&quot; : &quot;Success&quot;&lt;/div&gt;&lt;div&gt;}&lt;/div&gt;&lt;div&gt;&lt;br&gt;&lt;/div&gt;" style="shape=note;whiteSpace=wrap;html=1;backgroundOutline=1;darkOpacity=0.05;align=left;" vertex="1" parent="1">
          <mxGeometry x="2920" y="520" width="160" height="120" as="geometry" />
        </mxCell>
        <mxCell id="qI9zLhb5zL1YSGXmJBYN-5" style="edgeStyle=orthogonalEdgeStyle;rounded=0;orthogonalLoop=1;jettySize=auto;html=1;entryX=0;entryY=0.5;entryDx=0;entryDy=0;dashed=1;" edge="1" parent="1" source="qI9zLhb5zL1YSGXmJBYN-4" target="iP2fBkS0vCjnL0VtTD-p-67">
          <mxGeometry relative="1" as="geometry" />
        </mxCell>
        <mxCell id="qI9zLhb5zL1YSGXmJBYN-4" value="&lt;div&gt;{&lt;/div&gt;&lt;div&gt;&quot;StatusCode&quot; : &quot;00&quot;,&lt;/div&gt;&lt;div&gt;&amp;nbsp;&quot;StatusDesc&quot; : &quot;Success&quot;&lt;/div&gt;&lt;div&gt;}&lt;/div&gt;&lt;div&gt;&lt;br&gt;&lt;/div&gt;" style="shape=note;whiteSpace=wrap;html=1;backgroundOutline=1;darkOpacity=0.05;align=left;" vertex="1" parent="1">
          <mxGeometry x="1960" y="1500" width="160" height="120" as="geometry" />
        </mxCell>
        <mxCell id="qI9zLhb5zL1YSGXmJBYN-7" style="edgeStyle=orthogonalEdgeStyle;rounded=0;orthogonalLoop=1;jettySize=auto;html=1;entryX=1;entryY=0.5;entryDx=0;entryDy=0;dashed=1;" edge="1" parent="1" source="qI9zLhb5zL1YSGXmJBYN-6" target="iP2fBkS0vCjnL0VtTD-p-65">
          <mxGeometry relative="1" as="geometry" />
        </mxCell>
        <mxCell id="qI9zLhb5zL1YSGXmJBYN-6" value="&lt;div&gt;{&lt;/div&gt;&lt;div&gt;&quot;StatusCode&quot; : &quot;06&quot;,&lt;/div&gt;&lt;div&gt;&amp;nbsp;&quot;StatusDesc&quot; : &quot;Internal Server Error&quot;&lt;/div&gt;&lt;div&gt;}&lt;/div&gt;&lt;div&gt;&lt;br&gt;&lt;/div&gt;" style="shape=note;whiteSpace=wrap;html=1;backgroundOutline=1;darkOpacity=0.05;align=left;" vertex="1" parent="1">
          <mxGeometry x="2960" y="1260" width="230" height="110" as="geometry" />
        </mxCell>
        <mxCell id="qI9zLhb5zL1YSGXmJBYN-9" style="edgeStyle=orthogonalEdgeStyle;rounded=0;orthogonalLoop=1;jettySize=auto;html=1;entryX=1;entryY=0.5;entryDx=0;entryDy=0;dashed=1;" edge="1" parent="1" source="qI9zLhb5zL1YSGXmJBYN-8" target="iP2fBkS0vCjnL0VtTD-p-2">
          <mxGeometry relative="1" as="geometry" />
        </mxCell>
        <mxCell id="qI9zLhb5zL1YSGXmJBYN-8" value="&lt;div&gt;&lt;div&gt;&lt;div&gt;{&lt;/div&gt;&lt;div&gt;&amp;nbsp; &quot;id&quot;: &quot;78ffd0a8-c14a-4596-b567-cb409f59ba96&quot;,&lt;/div&gt;&lt;div&gt;&amp;nbsp; &quot;mid&quot;: &quot;wamid.HBgNNjI4MjIyODIyMzUwMBUCABIYFDNFQjAxRkU5NjkxRTFGNkY5RTlGAAd&quot;,&lt;/div&gt;&lt;div&gt;&amp;nbsp; &quot;client_id&quot;: &quot;&amp;lt;CLIENT_ID&amp;gt;&quot;,&lt;/div&gt;&lt;div&gt;&amp;nbsp; &quot;channel_id&quot;: &quot;whatsapp-cloud&quot;,&lt;/div&gt;&lt;div&gt;&amp;nbsp; &quot;account&quot;: {&lt;/div&gt;&lt;div&gt;&amp;nbsp; &amp;nbsp; &quot;id&quot;: &quot;&amp;lt;ACCOUNT_ID&amp;gt;&quot;,&lt;/div&gt;&lt;div&gt;&amp;nbsp; &amp;nbsp; &quot;account&quot;: &quot;&amp;lt;ACCOUNT&amp;gt;&quot;,&lt;/div&gt;&lt;div&gt;&amp;nbsp; &amp;nbsp; &quot;account_title&quot;: &quot;&amp;lt;ACCOUNT_TITLE&amp;gt;&quot;&lt;/div&gt;&lt;div&gt;&amp;nbsp; },&lt;/div&gt;&lt;div&gt;&amp;nbsp; &quot;data&quot;: {&lt;/div&gt;&lt;div&gt;&amp;nbsp; &amp;nbsp; &quot;object&quot;: &quot;whatsapp_business_account&quot;,&lt;/div&gt;&lt;div&gt;&amp;nbsp; &amp;nbsp; &quot;entry&quot;: [&lt;/div&gt;&lt;div&gt;&amp;nbsp; &amp;nbsp; &amp;nbsp; {&lt;/div&gt;&lt;div&gt;&amp;nbsp; &amp;nbsp; &amp;nbsp; &amp;nbsp; &quot;id&quot;: &quot;8856996819413533&quot;,&lt;/div&gt;&lt;div&gt;&amp;nbsp; &amp;nbsp; &amp;nbsp; &amp;nbsp; &quot;changes&quot;: [&lt;/div&gt;&lt;div&gt;&amp;nbsp; &amp;nbsp; &amp;nbsp; &amp;nbsp; &amp;nbsp; {&lt;/div&gt;&lt;div&gt;&amp;nbsp; &amp;nbsp; &amp;nbsp; &amp;nbsp; &amp;nbsp; &amp;nbsp; &quot;value&quot;: {&lt;/div&gt;&lt;div&gt;&amp;nbsp; &amp;nbsp; &amp;nbsp; &amp;nbsp; &amp;nbsp; &amp;nbsp; &amp;nbsp; &quot;messaging_product&quot;: &quot;whatsapp&quot;,&lt;/div&gt;&lt;div&gt;&amp;nbsp; &amp;nbsp; &amp;nbsp; &amp;nbsp; &amp;nbsp; &amp;nbsp; &amp;nbsp; &quot;metadata&quot;: {&lt;/div&gt;&lt;div&gt;&amp;nbsp; &amp;nbsp; &amp;nbsp; &amp;nbsp; &amp;nbsp; &amp;nbsp; &amp;nbsp; &amp;nbsp; &quot;display_phone_number&quot;: &quot;16505553333&quot;,&lt;/div&gt;&lt;div&gt;&amp;nbsp; &amp;nbsp; &amp;nbsp; &amp;nbsp; &amp;nbsp; &amp;nbsp; &amp;nbsp; &amp;nbsp; &quot;phone_number_id&quot;: &quot;27681414235104944&quot;&lt;/div&gt;&lt;div&gt;&amp;nbsp; &amp;nbsp; &amp;nbsp; &amp;nbsp; &amp;nbsp; &amp;nbsp; &amp;nbsp; },&lt;/div&gt;&lt;div&gt;&amp;nbsp; &amp;nbsp; &amp;nbsp; &amp;nbsp; &amp;nbsp; &amp;nbsp; &amp;nbsp; &quot;contacts&quot;: [&lt;/div&gt;&lt;div&gt;&amp;nbsp; &amp;nbsp; &amp;nbsp; &amp;nbsp; &amp;nbsp; &amp;nbsp; &amp;nbsp; &amp;nbsp; {&lt;/div&gt;&lt;div&gt;&amp;nbsp; &amp;nbsp; &amp;nbsp; &amp;nbsp; &amp;nbsp; &amp;nbsp; &amp;nbsp; &amp;nbsp; &amp;nbsp; &quot;profile&quot;: {&lt;/div&gt;&lt;div&gt;&amp;nbsp; &amp;nbsp; &amp;nbsp; &amp;nbsp; &amp;nbsp; &amp;nbsp; &amp;nbsp; &amp;nbsp; &amp;nbsp; &amp;nbsp; &quot;name&quot;: &quot;Kerry Fisher&quot;&lt;/div&gt;&lt;div&gt;&amp;nbsp; &amp;nbsp; &amp;nbsp; &amp;nbsp; &amp;nbsp; &amp;nbsp; &amp;nbsp; &amp;nbsp; &amp;nbsp; },&lt;/div&gt;&lt;div&gt;&amp;nbsp; &amp;nbsp; &amp;nbsp; &amp;nbsp; &amp;nbsp; &amp;nbsp; &amp;nbsp; &amp;nbsp; &amp;nbsp; &quot;wa_id&quot;: &quot;16315551234&quot;&lt;/div&gt;&lt;div&gt;&amp;nbsp; &amp;nbsp; &amp;nbsp; &amp;nbsp; &amp;nbsp; &amp;nbsp; &amp;nbsp; &amp;nbsp; }&lt;/div&gt;&lt;div&gt;&amp;nbsp; &amp;nbsp; &amp;nbsp; &amp;nbsp; &amp;nbsp; &amp;nbsp; &amp;nbsp; ],&lt;/div&gt;&lt;div&gt;&amp;nbsp; &amp;nbsp; &amp;nbsp; &amp;nbsp; &amp;nbsp; &amp;nbsp; &amp;nbsp; &quot;messages&quot;: [&lt;/div&gt;&lt;div&gt;&amp;nbsp; &amp;nbsp; &amp;nbsp; &amp;nbsp; &amp;nbsp; &amp;nbsp; &amp;nbsp; &amp;nbsp; {&lt;/div&gt;&lt;div&gt;&amp;nbsp; &amp;nbsp; &amp;nbsp; &amp;nbsp; &amp;nbsp; &amp;nbsp; &amp;nbsp; &amp;nbsp; &amp;nbsp; &quot;id&quot;: &quot;wamid.HBgMNjI4NTY3NjUyMjAxFQIAEhggNzJERjJDRUM5M0JEOEVDQTMxRDE4NUY2NjM1 NTIwRTMA&quot;,&lt;/div&gt;&lt;div&gt;&amp;nbsp; &amp;nbsp; &amp;nbsp; &amp;nbsp; &amp;nbsp; &amp;nbsp; &amp;nbsp; &amp;nbsp; &amp;nbsp; &quot;type&quot;: &quot;interactive&quot;,&lt;/div&gt;&lt;div&gt;&amp;nbsp; &amp;nbsp; &amp;nbsp; &amp;nbsp; &amp;nbsp; &amp;nbsp; &amp;nbsp; &amp;nbsp; &amp;nbsp; &quot;from_&quot;: &quot;628567652201&quot;,&lt;/div&gt;&lt;div&gt;&amp;nbsp; &amp;nbsp; &amp;nbsp; &amp;nbsp; &amp;nbsp; &amp;nbsp; &amp;nbsp; &amp;nbsp; &amp;nbsp; &quot;context&quot;: {&lt;/div&gt;&lt;div&gt;&amp;nbsp; &amp;nbsp; &amp;nbsp; &amp;nbsp; &amp;nbsp; &amp;nbsp; &amp;nbsp; &amp;nbsp; &amp;nbsp; &amp;nbsp; &quot;id&quot;: &quot;wamid.HBgMNjI4NTY3NjUyMjAxFQIAERgSMzQ4N0VDODNFQjkzNTMyMDQ4AA==&quot;&lt;/div&gt;&lt;div&gt;&amp;nbsp; &amp;nbsp; &amp;nbsp; &amp;nbsp; &amp;nbsp; &amp;nbsp; &amp;nbsp; &amp;nbsp; &amp;nbsp; },&lt;/div&gt;&lt;div&gt;&amp;nbsp; &amp;nbsp; &amp;nbsp; &amp;nbsp; &amp;nbsp; &amp;nbsp; &amp;nbsp; &amp;nbsp; &amp;nbsp; &quot;timestamp&quot;: &quot;1711388967&quot;,&lt;/div&gt;&lt;div&gt;&amp;nbsp; &amp;nbsp; &amp;nbsp; &amp;nbsp; &amp;nbsp; &amp;nbsp; &amp;nbsp; &amp;nbsp; &amp;nbsp; &quot;interactive&quot;: {&lt;/div&gt;&lt;div&gt;&amp;nbsp; &amp;nbsp; &amp;nbsp; &amp;nbsp; &amp;nbsp; &amp;nbsp; &amp;nbsp; &amp;nbsp; &amp;nbsp; &amp;nbsp; &quot;type&quot;: &quot;nfm_reply&quot;,&lt;/div&gt;&lt;div&gt;&amp;nbsp; &amp;nbsp; &amp;nbsp; &amp;nbsp; &amp;nbsp; &amp;nbsp; &amp;nbsp; &amp;nbsp; &amp;nbsp; &amp;nbsp; &quot;nfm_reply&quot;: {&lt;/div&gt;&lt;div&gt;&amp;nbsp; &amp;nbsp; &amp;nbsp; &amp;nbsp; &amp;nbsp; &amp;nbsp; &amp;nbsp; &amp;nbsp; &amp;nbsp; &amp;nbsp; &amp;nbsp; &quot;body&quot;: &quot;Sent&quot;,&lt;/div&gt;&lt;div&gt;&amp;nbsp; &amp;nbsp; &amp;nbsp; &amp;nbsp; &amp;nbsp; &amp;nbsp; &amp;nbsp; &amp;nbsp; &amp;nbsp; &amp;nbsp; &amp;nbsp; &quot;name&quot;: &quot;flow&quot;,&lt;/div&gt;&lt;div&gt;&amp;nbsp; &amp;nbsp; &amp;nbsp; &amp;nbsp; &amp;nbsp; &amp;nbsp; &amp;nbsp; &amp;nbsp; &amp;nbsp; &amp;nbsp; &amp;nbsp; &quot;response_json&quot;: &quot;{\&quot;flow_token\&quot;:\&quot;AQAAAAACS5FpgQ_cAAAAAD0QI3s.17\&quot;,\&quot;firstName\&quot;:\&quot;Kerry\&quot;,\&quot;lastN ame\&quot;:\&quot;Fisher\&quot;,\&quot;source\&quot;:\&quot;3\&quot;,\&quot;email\&quot;:\&quot;kerry@gmail.com\&quot;}&quot;&lt;/div&gt;&lt;div&gt;&amp;nbsp; &amp;nbsp; &amp;nbsp; &amp;nbsp; &amp;nbsp; &amp;nbsp; &amp;nbsp; &amp;nbsp; &amp;nbsp; &amp;nbsp; }&lt;/div&gt;&lt;div&gt;&amp;nbsp; &amp;nbsp; &amp;nbsp; &amp;nbsp; &amp;nbsp; &amp;nbsp; &amp;nbsp; &amp;nbsp; &amp;nbsp; }&lt;/div&gt;&lt;div&gt;&amp;nbsp; &amp;nbsp; &amp;nbsp; &amp;nbsp; &amp;nbsp; &amp;nbsp; &amp;nbsp; &amp;nbsp; }&lt;/div&gt;&lt;div&gt;&amp;nbsp; &amp;nbsp; &amp;nbsp; &amp;nbsp; &amp;nbsp; &amp;nbsp; &amp;nbsp; ]&lt;/div&gt;&lt;div&gt;&amp;nbsp; &amp;nbsp; &amp;nbsp; &amp;nbsp; &amp;nbsp; &amp;nbsp; },&lt;/div&gt;&lt;div&gt;&amp;nbsp; &amp;nbsp; &amp;nbsp; &amp;nbsp; &amp;nbsp; &amp;nbsp; &quot;field&quot;: &quot;messages&quot;&lt;/div&gt;&lt;div&gt;&amp;nbsp; &amp;nbsp; &amp;nbsp; &amp;nbsp; &amp;nbsp; }&lt;/div&gt;&lt;div&gt;&amp;nbsp; &amp;nbsp; &amp;nbsp; &amp;nbsp; ]&lt;/div&gt;&lt;div&gt;&amp;nbsp; &amp;nbsp; &amp;nbsp; }&lt;/div&gt;&lt;div&gt;&amp;nbsp; &amp;nbsp; ]&lt;/div&gt;&lt;div&gt;&amp;nbsp; }&lt;/div&gt;&lt;div&gt;}&lt;/div&gt;&lt;/div&gt;&lt;/div&gt;" style="shape=note;whiteSpace=wrap;html=1;backgroundOutline=1;darkOpacity=0.05;align=left;" vertex="1" parent="1">
          <mxGeometry x="2460" y="-680" width="610" height="890" as="geometry" />
        </mxCell>
      </root>
    </mxGraphModel>
  </diagram>
</mxfile>
